<svg width="11" height="3" viewBox="0 0 11 3" fill="none" xmlns="http://www.w3.org/2000/svg">
<path d="M10.1042 1.49999C10.1042 1.6956 9.94561 1.85416 9.75001 1.85416C9.55441 1.85416 9.39584 1.6956 9.39584 1.49999C9.39584 1.30439 9.55441 1.14583 9.75001 1.14583V1.14583C9.94561 1.14583 10.1042 1.30439 10.1042 1.49999" stroke="#DCD9D9" stroke-width="1.5" stroke-linecap="round" stroke-linejoin="round"/>
<path d="M5.85418 1.49999C5.85418 1.6956 5.69561 1.85416 5.50001 1.85416C5.30441 1.85416 5.14584 1.6956 5.14584 1.49999C5.14584 1.30439 5.30441 1.14583 5.50001 1.14583V1.14583C5.69561 1.14583 5.85418 1.30439 5.85418 1.49999" stroke="#DCD9D9" stroke-width="1.5" stroke-linecap="round" stroke-linejoin="round"/>
<path d="M1.60418 1.49999C1.60418 1.6956 1.44561 1.85416 1.25001 1.85416C1.05441 1.85416 0.895844 1.6956 0.895844 1.49999C0.895844 1.30439 1.05441 1.14583 1.25001 1.14583V1.14583C1.44561 1.14583 1.60418 1.30439 1.60418 1.49999" stroke="#DCD9D9" stroke-width="1.5" stroke-linecap="round" stroke-linejoin="round"/>
</svg>
